<?xml version="1.0"?>
<svg xmlns="http://www.w3.org/2000/svg" xmlns:xlink="http://www.w3.org/1999/xlink" xmlns:svgjs="http://svgjs.com/svgjs" version="1.1" width="512" height="512" x="0" y="0" viewBox="0 0 512 512" style="enable-background:new 0 0 512 512" xml:space="preserve" class=""><g><g xmlns="http://www.w3.org/2000/svg"><path d="m466 0h-90c-8.284 0-15 6.716-15 15s6.716 15 15 15h53.787l-80.952 80.952c-25.895-19.428-58.044-30.952-92.835-30.952s-66.941 11.524-92.835 30.952l-33.183-33.184 29.905-8.013c8.002-2.144 12.75-10.369 10.606-18.371-2.144-8.001-10.368-12.752-18.371-10.606l-29.905 8.013 8.013-29.905c2.144-8.002-2.604-16.227-10.606-18.371-8.006-2.146-16.228 2.604-18.371 10.606l-8.013 29.905-20.159-20.158c-5.858-5.858-15.356-5.858-21.213 0-5.858 5.858-5.858 15.355 0 21.213l20.159 20.159-29.905 8.013c-8.002 2.144-12.75 10.369-10.606 18.371 1.795 6.702 7.856 11.122 14.479 11.122 1.285 0 2.591-.167 3.892-.515l29.905-8.013-8.013 29.905c-2.144 8.002 2.604 16.227 10.606 18.371 1.301.349 2.606.515 3.892.515 6.623 0 12.684-4.42 14.479-11.122l8.013-29.905 32.221 32.221c-24.842 27.497-39.99 63.91-39.99 103.797 0 80.407 61.545 146.702 140 154.272v42.728h-45c-8.284 0-15 6.716-15 15s6.716 15 15 15h45v35c0 8.284 6.716 15 15 15s15-6.716 15-15v-35h45c8.284 0 15-6.716 15-15s-6.716-15-15-15h-45v-42.728c78.455-7.569 140-73.865 140-154.272 0-39.887-15.148-76.3-39.989-103.798l79.989-79.989v53.787c0 8.284 6.716 15 15 15s15-6.716 15-15v-90c0-8.284-6.716-15-15-15zm-210 360c-68.925 0-125-56.075-125-125s56.075-125 125-125 125 56.075 125 125-56.075 125-125 125z" fill="#07cdcc" data-original="#000000" style="" class=""/></g></g></svg>
